<?xml version="1.0" encoding="UTF-8"?>
<svg width="66px" height="46px" viewBox="0 0 66 46" version="1.1" xmlns="http://www.w3.org/2000/svg" xmlns:xlink="http://www.w3.org/1999/xlink">
    <title>Dinersclub</title>
    <defs>
        <linearGradient x1="70.7519601%" y1="81.9569836%" x2="32.4763686%" y2="18.0430164%" id="linearGradient-1">
            <stop stop-color="#009BE0" offset="0%"></stop>
            <stop stop-color="#006BA8" offset="100%"></stop>
        </linearGradient>
    </defs>
    <g id="Page-1" stroke="none" stroke-width="1" fill="none" fill-rule="evenodd">
        <g id="Color" transform="translate(-90.000000, -73.000000)">
            <g id="Dinersclub" transform="translate(90.000000, 73.000000)">
                <path d="M0,3.00044415 C0,1.34334461 1.34828267,0 3.00738502,0 L62.992615,0 C64.6535479,0 66,1.35178054 66,3.00044415 L66,42.9995558 C66,44.6566554 64.6517173,46 62.992615,46 L3.00738502,46 C1.34645213,46 0,44.6482195 0,42.9995558 L0,3.00044415 Z" id="Rectangle-Copy-24" fill="#F5F5F5"></path>
                <g id="Shape-+-Shape-Copy" transform="translate(18.000000, 11.000000)">
                    <path d="M17.5521193,23.9524761 C24.0395604,23.9837949 29.9609105,18.6134979 29.9609105,12.0803177 C29.9609105,4.93592165 24.0395604,-0.00237538044 17.5521193,8.57184157e-07 L11.9689168,8.57184157e-07 C5.40376766,-0.00237538044 0,4.93739492 0,12.0803177 C0,18.6149236 5.40376766,23.9838424 11.9689168,23.9524761 L17.5521193,23.9524761 L17.5521193,23.9524761 Z" id="Shape" fill="url(#linearGradient-1)"></path>
                    <path d="M11.9919937,0.998019802 C5.99293564,0.999920792 1.13171115,5.90685149 1.13029827,11.9629782 C1.13171115,18.0180594 5.99288854,22.9245149 11.9919937,22.9264158 C17.9924647,22.9245149 22.8546782,18.0180594 22.8555259,11.9629782 C22.8546311,5.90685149 17.9924647,0.999920792 11.9919937,0.998019802 L11.9919937,0.998019802 Z M5.10706436,11.9629782 L5.10706436,11.9629782 C5.11271586,9.00361188 6.94427002,6.48004752 9.52700157,5.47722772 L9.52700157,18.4472079 C6.94427002,17.4449584 5.11266876,14.9227723 5.10706436,11.9629782 L5.10706436,11.9629782 Z M14.456044,18.4500594 L14.456044,18.4500594 L14.456044,5.4768 C17.0397174,6.47719604 18.8740973,9.00218614 18.8788069,11.9629782 C18.8740973,14.9246733 17.0397174,17.4477624 14.456044,18.4500594 L14.456044,18.4500594 Z" id="Shape" fill="#F4F6F7"></path>
                </g>
            </g>
        </g>
    </g>
</svg>